<svg xmlns="http://www.w3.org/2000/svg" xmlns:xlink="http://www.w3.org/1999/xlink" width="1080" zoomAndPan="magnify" viewBox="0 0 810 809.999993" height="1080" preserveAspectRatio="xMidYMid meet" version="1.0"><defs><clipPath id="693180ffc9"><path d="M 6.488281 6.488281 L 803.738281 6.488281 L 803.738281 803.738281 L 6.488281 803.738281 Z M 6.488281 6.488281 " clip-rule="nonzero"/></clipPath></defs><g clip-path="url(#693180ffc9)"><path fill="#737373" d="M 686.785156 123.207031 C 611.515625 47.941406 511.445312 6.488281 404.996094 6.488281 C 298.546875 6.488281 198.472656 47.941406 123.207031 123.207031 C 47.941406 198.472656 6.488281 298.554688 6.488281 404.996094 C 6.488281 511.4375 47.941406 611.515625 123.207031 686.785156 C 198.472656 762.050781 298.546875 803.503906 404.996094 803.503906 C 511.445312 803.503906 611.515625 762.050781 686.785156 686.785156 C 762.050781 611.515625 803.503906 511.445312 803.503906 404.996094 C 803.503906 298.546875 762.050781 198.472656 686.785156 123.207031 Z M 686.785156 123.207031 " fill-opacity="1" fill-rule="nonzero"/></g><path fill="#ffffff" d="M 500.167969 215.71875 C 501.726562 217.277344 503.246094 218.871094 504.722656 220.503906 C 506.203125 222.132812 507.640625 223.800781 509.039062 225.503906 C 510.4375 227.207031 511.789062 228.941406 513.101562 230.710938 C 514.414062 232.480469 515.683594 234.28125 516.90625 236.113281 C 518.128906 237.945312 519.308594 239.804688 520.441406 241.695312 C 521.574219 243.582031 522.65625 245.5 523.695312 247.441406 C 524.734375 249.386719 525.726562 251.351562 526.667969 253.34375 C 527.609375 255.335938 528.5 257.347656 529.34375 259.382812 C 530.1875 261.417969 530.980469 263.472656 531.722656 265.546875 C 532.464844 267.621094 533.152344 269.710938 533.792969 271.816406 C 534.433594 273.925781 535.019531 276.046875 535.554688 278.183594 C 536.089844 280.320312 536.574219 282.46875 537.003906 284.628906 C 537.433594 286.789062 537.808594 288.960938 538.132812 291.140625 C 538.457031 293.316406 538.726562 295.503906 538.941406 297.695312 C 539.15625 299.886719 539.320312 302.082031 539.425781 304.285156 C 539.535156 306.484375 539.589844 308.683594 539.589844 310.886719 C 539.589844 313.089844 539.535156 315.292969 539.425781 317.492188 C 539.320312 319.691406 539.15625 321.886719 538.941406 324.078125 C 538.726562 326.273438 538.457031 328.457031 538.132812 330.636719 C 537.808594 332.816406 537.433594 334.984375 537.003906 337.144531 C 536.574219 339.304688 536.089844 341.453125 535.554688 343.589844 C 535.019531 345.726562 534.433594 347.847656 533.792969 349.957031 C 533.152344 352.066406 532.464844 354.15625 531.722656 356.230469 C 530.980469 358.304688 530.1875 360.359375 529.34375 362.394531 C 528.5 364.429688 527.609375 366.441406 526.667969 368.433594 C 525.726562 370.421875 524.734375 372.390625 523.695312 374.332031 C 522.65625 376.277344 521.574219 378.191406 520.441406 380.082031 C 519.308594 381.96875 518.128906 383.832031 516.90625 385.660156 C 515.683594 387.492188 514.414062 389.292969 513.101562 391.0625 C 511.789062 392.832031 510.4375 394.566406 509.039062 396.269531 C 507.640625 397.972656 506.203125 399.640625 504.722656 401.273438 C 503.242188 402.90625 501.726562 404.5 500.167969 406.058594 C 498.609375 407.613281 497.015625 409.132812 495.382812 410.613281 C 493.75 412.089844 492.085938 413.53125 490.382812 414.925781 C 488.679688 416.324219 486.941406 417.679688 485.171875 418.992188 C 483.40625 420.304688 481.605469 421.570312 479.773438 422.796875 C 477.941406 424.019531 476.082031 425.195312 474.191406 426.328125 C 472.300781 427.460938 470.386719 428.546875 468.445312 429.585938 C 466.5 430.625 464.535156 431.613281 462.542969 432.554688 C 460.550781 433.496094 458.539062 434.390625 456.503906 435.234375 C 454.46875 436.074219 452.414062 436.867188 450.339844 437.609375 C 448.265625 438.351562 446.175781 439.042969 444.066406 439.683594 C 441.960938 440.320312 439.839844 440.910156 437.703125 441.445312 C 435.566406 441.980469 433.417969 442.460938 431.253906 442.890625 C 429.09375 443.320312 426.925781 443.699219 424.746094 444.019531 C 422.566406 444.34375 420.382812 444.613281 418.191406 444.828125 C 416 445.046875 413.800781 445.207031 411.601562 445.316406 C 409.402344 445.425781 407.199219 445.476562 405 445.476562 C 402.796875 445.476562 400.59375 445.421875 398.394531 445.316406 C 396.195312 445.207031 394 445.046875 391.804688 444.828125 C 389.613281 444.613281 387.429688 444.34375 385.25 444.019531 C 383.070312 443.699219 380.902344 443.320312 378.742188 442.890625 C 376.582031 442.460938 374.433594 441.980469 372.296875 441.445312 C 370.160156 440.910156 368.035156 440.320312 365.929688 439.683594 C 363.820312 439.042969 361.730469 438.351562 359.65625 437.609375 C 357.582031 436.867188 355.527344 436.074219 353.492188 435.234375 C 351.457031 434.390625 349.445312 433.496094 347.453125 432.554688 C 345.460938 431.613281 343.496094 430.625 341.554688 429.585938 C 339.609375 428.546875 337.695312 427.460938 335.804688 426.328125 C 333.914062 425.195312 332.054688 424.019531 330.222656 422.796875 C 328.394531 421.570312 326.59375 420.304688 324.824219 418.992188 C 323.054688 417.679688 321.316406 416.324219 319.617188 414.925781 C 317.914062 413.53125 316.246094 412.089844 314.613281 410.613281 C 312.980469 409.132812 311.386719 407.613281 309.828125 406.058594 C 308.269531 404.5 306.753906 402.90625 305.273438 401.273438 C 303.792969 399.640625 302.355469 397.972656 300.957031 396.269531 C 299.5625 394.566406 298.207031 392.832031 296.894531 391.0625 C 295.582031 389.292969 294.316406 387.492188 293.089844 385.660156 C 291.867188 383.832031 290.6875 381.96875 289.558594 380.082031 C 288.425781 378.191406 287.339844 376.277344 286.300781 374.332031 C 285.261719 372.390625 284.273438 370.421875 283.332031 368.433594 C 282.386719 366.441406 281.496094 364.429688 280.652344 362.394531 C 279.808594 360.359375 279.019531 358.304688 278.277344 356.230469 C 277.535156 354.15625 276.84375 352.066406 276.203125 349.957031 C 275.5625 347.847656 274.976562 345.726562 274.441406 343.589844 C 273.90625 341.453125 273.425781 339.304688 272.996094 337.144531 C 272.566406 334.984375 272.1875 332.816406 271.863281 330.636719 C 271.542969 328.457031 271.273438 326.273438 271.054688 324.078125 C 270.839844 321.886719 270.679688 319.691406 270.570312 317.492188 C 270.460938 315.292969 270.410156 313.089844 270.410156 310.886719 C 270.410156 308.683594 270.460938 306.484375 270.570312 304.285156 C 270.679688 302.082031 270.839844 299.886719 271.054688 297.695312 C 271.273438 295.503906 271.542969 293.316406 271.863281 291.140625 C 272.1875 288.960938 272.566406 286.789062 272.996094 284.628906 C 273.425781 282.46875 273.90625 280.320312 274.441406 278.183594 C 274.976562 276.046875 275.5625 273.925781 276.203125 271.816406 C 276.84375 269.710938 277.535156 267.621094 278.277344 265.546875 C 279.019531 263.472656 279.808594 261.417969 280.652344 259.382812 C 281.496094 257.347656 282.390625 255.335938 283.332031 253.34375 C 284.273438 251.351562 285.261719 249.386719 286.300781 247.441406 C 287.339844 245.5 288.425781 243.582031 289.558594 241.695312 C 290.6875 239.804688 291.867188 237.945312 293.089844 236.113281 C 294.316406 234.28125 295.582031 232.480469 296.894531 230.710938 C 298.207031 228.941406 299.5625 227.207031 300.957031 225.503906 C 302.355469 223.800781 303.792969 222.132812 305.273438 220.503906 C 306.753906 218.871094 308.269531 217.277344 309.828125 215.71875 C 311.386719 214.160156 312.980469 212.640625 314.613281 211.164062 C 316.246094 209.683594 317.914062 208.246094 319.617188 206.847656 C 321.316406 205.449219 323.054688 204.097656 324.824219 202.785156 C 326.59375 201.472656 328.394531 200.203125 330.222656 198.980469 C 332.054688 197.757812 333.917969 196.578125 335.804688 195.445312 C 337.695312 194.3125 339.609375 193.226562 341.554688 192.191406 C 343.496094 191.152344 345.460938 190.160156 347.453125 189.21875 C 349.445312 188.277344 351.457031 187.386719 353.492188 186.542969 C 355.527344 185.699219 357.582031 184.90625 359.65625 184.164062 C 361.730469 183.421875 363.820312 182.730469 365.929688 182.09375 C 368.035156 181.453125 370.160156 180.867188 372.296875 180.332031 C 374.433594 179.796875 376.582031 179.3125 378.742188 178.882812 C 380.902344 178.453125 383.070312 178.078125 385.25 177.753906 C 387.429688 177.429688 389.613281 177.160156 391.804688 176.945312 C 394 176.730469 396.195312 176.566406 398.394531 176.460938 C 400.59375 176.351562 402.796875 176.296875 405 176.296875 C 407.203125 176.296875 409.402344 176.351562 411.601562 176.460938 C 413.800781 176.566406 416 176.730469 418.191406 176.945312 C 420.382812 177.160156 422.566406 177.429688 424.746094 177.753906 C 426.925781 178.078125 429.09375 178.453125 431.253906 178.882812 C 433.417969 179.3125 435.566406 179.796875 437.703125 180.332031 C 439.839844 180.867188 441.960938 181.453125 444.066406 182.09375 C 446.175781 182.730469 448.265625 183.421875 450.339844 184.164062 C 452.414062 184.90625 454.46875 185.699219 456.503906 186.542969 C 458.539062 187.386719 460.550781 188.277344 462.542969 189.21875 C 464.535156 190.160156 466.5 191.152344 468.445312 192.191406 C 470.386719 193.226562 472.300781 194.3125 474.191406 195.445312 C 476.082031 196.578125 477.941406 197.757812 479.773438 198.980469 C 481.605469 200.203125 483.40625 201.472656 485.175781 202.785156 C 486.941406 204.097656 488.679688 205.449219 490.382812 206.847656 C 492.085938 208.246094 493.75 209.683594 495.382812 211.164062 C 497.015625 212.640625 498.609375 214.160156 500.167969 215.71875 Z M 500.167969 215.71875 " fill-opacity="1" fill-rule="nonzero"/><path fill="#ffffff" d="M 408.886719 505.285156 L 401.109375 505.285156 C 291.140625 505.285156 198.527344 579.527344 170.621094 680.628906 C 233.820312 734.449219 315.671875 766.988281 404.996094 766.988281 C 494.316406 766.988281 576.171875 734.449219 639.371094 680.628906 C 611.460938 579.535156 518.859375 505.285156 408.878906 505.285156 Z M 408.886719 505.285156 " fill-opacity="1" fill-rule="nonzero"/></svg>